<svg xmlns="http://www.w3.org/2000/svg" viewBox="0 0 128 128">
  <defs>
    <linearGradient id="convertiGradient" x1="0%" y1="0%" x2="100%" y2="100%">
      <stop offset="0%" stop-color="#2dd4ff" />
      <stop offset="100%" stop-color="#3b82f6" />
    </linearGradient>
  </defs>
  <rect width="128" height="128" rx="32" fill="url(#convertiGradient)" />
  <path
    d="M68.6 22c-11 6.5-17.8 15.9-19.4 27.3-.4 2.8-1.4 5.3-3 7.5-4.3 6.1-6.4 12.6-6.5 19.5-.2 21.1 20.8 33.3 38.9 25.2 9.2-4.1 15.1-12 16.6-22.8.8-5.9-.5-11.2-3.9-15.9-2.3-3.1-3.8-6.6-4.5-10.3-.3-1.5-.5-3.1-.4-4.6.1-4.5 1.9-8.6 5.4-12.2-3.4-.9-6.8-1.3-10.2-.9 1.4-4.9 4-9.1 7.7-12.7C81.8 19.7 75 19.1 68.6 22Zm-8.4 59.3c2.1-3.9 6.7-6.4 11.1-5.9 4.7.5 8.3 4.1 8.9 8.7.7 5.6-3.9 10.3-9.5 9.8-7.3-.6-11.6-7.8-10.5-12.6Z"
    fill="#ffffff"
  />
</svg>

